<?xml version="1.0" encoding="UTF-8"?>
<svg width="139" height="20" version="1.1" xmlns="http://www.w3.org/2000/svg">
 <defs>
  <linearGradient id="a" x1="72.195%" x2="17.503%" y2="100%">
   <stop stop-color="#33D35E" offset="0"/>
   <stop stop-color="#2AB6D9" offset="1"/>
  </linearGradient>
 </defs>
 <g fill-rule="evenodd">
  <path d="M37.754 15.847c2.852 0 5.152-1.622 5.952-4.216h-3.897c-.376.665-1.14 1.066-2.055 1.066-1.237 0-2.065-.674-2.32-1.978h8.44c.051-.352.081-.694.081-1.037 0-3.335-2.537-5.95-6.201-5.95-3.568 0-6.175 2.564-6.175 6.049 0 3.473 2.628 6.066 6.175 6.066zm2.344-7.297h-4.596c.317-1.129 1.11-1.749 2.252-1.749 1.181 0 2 .613 2.344 1.75zm10.946 7.296c1.32 0 2.5-.434 3.43-1.188l.336.804h3.027V4.093h-2.919l-.4.88c-.94-.775-2.135-1.222-3.474-1.222-3.476 0-5.961 2.505-5.961 6.026 0 3.533 2.485 6.07 5.961 6.07zm.524-3.467c-1.467 0-2.545-1.108-2.545-2.593 0-1.475 1.069-2.583 2.545-2.583 1.466 0 2.544 1.108 2.544 2.583 0 1.485-1.078 2.593-2.544 2.593zm13.123 3.467c3.02 0 5.025-1.554 5.025-3.93 0-2.883-2.387-3.256-4.183-3.575-1.08-.193-1.95-.344-1.95-.99 0-.527.422-.838 1.05-.838.71 0 1.197.337 1.197 1.063h3.667c-.044-2.303-1.92-3.843-4.816-3.843-2.912 0-4.854 1.47-4.854 3.75 0 2.757 2.337 3.289 4.1 3.574 1.092.181 1.952.368 1.952 1.024 0 .587-.543.88-1.116.88-.742 0-1.32-.383-1.32-1.214h-3.77c.036 2.463 1.919 4.1 5.018 4.1zm8.1 3.858c2.936 0 4.344-1.257 5.877-4.736l4.764-10.863h-4.206l-2.249 6.263-2.412-6.263H70.31l4.698 10.43c-.53 1.414-.983 1.804-2.48 1.804H71.45v3.365h1.341zm18.504-3.858c3.5 0 5.973-2.515 5.973-6.048S94.796 3.75 91.295 3.75a5.332 5.332 0 00-2.825.784V0H84.6v15.474h2.897l.37-.844c.923.771 2.102 1.216 3.428 1.216zm-.523-3.467c-1.467 0-2.545-1.108-2.545-2.58 0-1.486 1.078-2.594 2.545-2.594 1.466 0 2.544 1.108 2.544 2.593 0 1.473-1.087 2.58-2.544 2.58zm13.598 3.467c1.32 0 2.5-.434 3.43-1.188l.336.804h3.027V4.093h-2.918l-.401.88c-.939-.775-2.135-1.222-3.474-1.222-3.476 0-5.96 2.505-5.96 6.026 0 3.533 2.484 6.07 5.96 6.07zm.524-3.467c-1.467 0-2.545-1.108-2.545-2.593 0-1.475 1.07-2.583 2.545-2.583 1.467 0 2.545 1.108 2.545 2.583 0 1.485-1.078 2.593-2.545 2.593zm12.653 3.095V9.403c0-1.447.702-2.3 1.923-2.3.986 0 1.483.657 1.483 1.98v6.39h3.915V8.543c0-2.897-1.733-4.773-4.373-4.773-1.47 0-2.733.565-3.58 1.508l-.537-1.172h-2.747v11.369h3.916zm13.748 0v-4.808l2.848 4.808h4.616l-3.902-5.95 3.543-5.419h-4.397l-2.708 4.454V0h-3.916v15.474h3.916z" fill="#2D314D" fill-rule="nonzero"/>
  <g fill="url(#a)">
   <path d="M10.802 0L0 19.704h5.986L16.789 0z"/>
   <path d="M18.171 0L7.368 19.704h5.986L24.157 0z" opacity=".5"/>
   <path d="M25.539 0L14.737 19.704h5.986L31.525 0z" opacity=".15"/>
  </g>
 </g>
 <g fill="#fff" stroke-width=".1171">
  <path d="m36.022 15.565c-2.04-0.54863-3.6378-2.1415-4.1758-4.1631-0.21476-0.8069-0.21476-2.4412 0-3.2481 0.70352-2.6432 3.0216-4.3447 5.9192-4.3447 3.5558 0 6.0893 2.4397 6.0893 5.864v1.0416h-4.2157c-3.2958 0-4.2151 0.03194-4.2131 0.14638 0.0045 0.25691 0.42475 1.0761 0.65851 1.2837 0.91105 0.80899 2.7169 0.71476 3.5457-0.18501 0.28374-0.30803 0.28492-0.3082 2.145-0.3082h1.8611l-0.0797 0.26348c-0.49202 1.6267-2.2255 3.168-4.117 3.6607-0.83912 0.21856-2.5854 0.21309-3.4176-0.01071zm4.0854-7.081c0-0.25473-0.35389-0.79191-0.75198-1.1414-1.2117-1.0639-3.1617-0.63552-3.7564 0.82522l-0.1788 0.43913h2.3436c1.5583 0 2.3436-0.04119 2.3436-0.12292z"/>
  <path d="m49.235 15.536c-2.7094-0.89252-4.2379-3.2144-4.0594-6.1665 0.15649-2.5879 1.5744-4.4858 3.9487-5.2853 0.47637-0.16041 0.97944-0.2158 1.9322-0.21273 1.3826 0.00445 2.0349 0.18379 2.9635 0.81482 0.23553 0.16005 0.46529 0.29099 0.51057 0.29099 0.04529 0 0.14903-0.18444 0.23054-0.40986l0.14821-0.40986h2.8805v11.242h-2.9313l-0.19496-0.40882c-0.17285-0.36247-0.21599-0.38978-0.38051-0.2409-0.10206 0.09236-0.55361 0.3413-1.0034 0.55321-0.74847 0.35258-0.92722 0.38792-2.106 0.41637-0.99724 0.02407-1.435-0.0173-1.9386-0.18319zm3.4875-3.3791c1.4799-0.69548 1.8943-2.7746 0.81419-4.0849-0.91087-1.105-2.8416-1.1744-3.8364-0.13774-0.72257 0.75293-0.89576 2.0479-0.41265 3.0855 0.57803 1.2414 2.1241 1.7532 3.4349 1.1372z"/>
  <path d="m62.828 15.562c-1.6549-0.44471-2.8812-1.7534-3.0227-3.2256l-0.05459-0.56813h1.83c1.7078 0 1.83 0.01458 1.83 0.21841 0 0.65124 0.97878 1.1686 1.7881 0.94511 0.48427-0.13371 0.67102-0.38946 0.67102-0.91892 0-0.50847-0.31773-0.66956-2.0029-1.0154-2.2062-0.45283-3.0939-0.93369-3.6572-1.9811-0.36349-0.67586-0.36304-2.3703 8.02e-4 -3.0447 0.7291-1.3514 2.3806-2.1664 4.39-2.1664 1.6887 0 3.0668 0.49383 3.8752 1.3887 0.54851 0.60713 0.74465 0.99621 0.88135 1.7483l0.11092 0.61029h-3.5511l-0.14156-0.39149c-0.16438-0.45459-0.54227-0.66243-1.2044-0.66243-0.96362 0-1.3921 0.98105-0.62367 1.428 0.19848 0.11546 1.0062 0.34136 1.795 0.50201 2.2625 0.4608 3.1135 0.9364 3.608 2.0165 0.25123 0.54876 0.28434 0.76341 0.24577 1.5934-0.02797 0.60188-0.12238 1.1182-0.25344 1.386-0.51913 1.0608-1.4893 1.7956-2.8328 2.1456-0.87134 0.22695-2.8228 0.2226-3.6818-0.0082z"/>
  <path d="m71.491 17.975v-1.6394h1.0069c1.2987 0 1.7025-0.1837 2.1609-0.98285 0.18865-0.32891 0.3435-0.67881 0.3441-0.77755 6.05e-4 -0.09874-1.0265-2.4589-2.2824-5.2448-1.2559-2.7859-2.2835-5.0908-2.2835-5.122 0-0.031232 0.92632-0.042395 2.0585-0.024807l2.0585 0.031978 1.1837 3.0739c0.65101 1.6907 1.2133 3.0732 1.2496 3.0723 0.03629-9.13e-4 0.5613-1.3974 1.1667-3.1032l1.1007-3.1015h2.0443c1.588 0 2.0315 0.032674 1.9869 0.14638-0.32281 0.82354-4.7894 10.906-5.1465 11.618-0.57041 1.1362-0.97163 1.7308-1.5713 2.3288-0.99778 0.99498-2.0392 1.3612-3.8769 1.3633l-1.2003 0.0014z"/>
  <path d="m89.51 15.48c-0.4264-0.14535-0.96302-0.40747-1.1925-0.58249-0.22946-0.17502-0.44298-0.31822-0.47448-0.31822-0.03151 0-0.11815 0.18444-0.19255 0.40986l-0.13526 0.40986h-2.9094v-15.34h3.8644v2.2375c0 2.0856 0.01391 2.2316 0.20493 2.1514 1.043-0.43798 1.4987-0.55779 2.3128-0.60799 2.8032-0.17288 5.2064 1.4834 5.9829 4.1235 0.29452 1.0013 0.26863 2.7981-0.05495 3.8143-0.60815 1.9099-2.0546 3.3021-3.9413 3.7935-1.0317 0.26873-2.5246 0.2296-3.4645-0.09081zm2.4132-3.3263c0.92591-0.46713 1.3965-1.2648 1.4015-2.3756 0.0042-0.94504-0.34558-1.6399-1.088-2.1612-0.46729-0.32808-0.58552-0.35651-1.483-0.35651-0.89464 0-1.0164 0.029019-1.474 0.35131-0.27433 0.19322-0.62532 0.58844-0.77998 0.87826-0.24072 0.4511-0.27567 0.65624-0.24276 1.425 0.03318 0.77515 0.08669 0.96672 0.39093 1.3996 0.7403 1.0533 2.1399 1.4119 3.2753 0.83904z"/>
  <path d="m102.67 15.569c-2.5549-0.68798-4.1766-2.9366-4.1766-5.7913 0-1.8374 0.55867-3.2307 1.7659-4.404 1.7958-1.7453 5.0139-2.0615 7.0782-0.69542 0.24783 0.16401 0.48077 0.29819 0.51764 0.29819 0.0369 0 0.1441-0.18444 0.23829-0.40986l0.17124-0.40986h2.8073v11.242h-2.8991l-0.14551-0.35131c-0.17689-0.42705-0.24587-0.43185-0.79665-0.05546-1.032 0.70523-3.1089 0.96806-4.5607 0.57714zm3.4826-3.4879c0.30163-0.15307 0.67533-0.47951 0.87636-0.76553 0.29605-0.42123 0.35723-0.63247 0.39398-1.3603 0.0386-0.76412 7e-3 -0.92842-0.27754-1.4515-0.45591-0.83767-1.0564-1.2218-2.0046-1.2821-0.97547-0.062113-1.6607 0.19265-2.194 0.81571-0.94977 1.1096-0.84145 2.7717 0.24283 3.7261 0.84959 0.74784 1.8945 0.85987 2.963 0.31768z"/>
  <path d="m113.65 9.778v-5.6209h2.7065l0.24281 0.55623c0.13354 0.30593 0.26003 0.5759 0.28108 0.59994 0.0211 0.024038 0.28312-0.17181 0.58238-0.43523 1.3985-1.231 3.845-1.3921 5.4547-0.35912 0.64976 0.41695 1.0526 0.91525 1.4839 1.8355l0.31477 0.67163 0.072 8.3728h-3.7608l-6.5e-4 -3.3667c-7.1e-4 -3.6454-0.0567-4.0862-0.58689-4.6163-0.28225-0.28226-0.4253-0.33126-0.96701-0.33126-0.80155 0-1.3297 0.32731-1.695 1.0504-0.25505 0.50488-0.26348 0.6293-0.26348 3.8927v3.3711h-3.8644z"/>
  <path d="m127.47 7.7287v-7.6702h3.7473v4.2976c0 2.6728 0.0415 4.2556 0.1097 4.1864 0.0603-0.061186 0.68621-1.0598 1.3908-2.2191l1.2811-2.1078 2.1222-0.031917c1.1672-0.017554 2.1222-0.00563 2.1222 0.026496 0 0.032127-0.76691 1.2263-1.7042 2.6538-0.93733 1.4274-1.6784 2.6627-1.6468 2.745 0.0316 0.082318 0.87754 1.3959 1.8799 2.919 1.0024 1.5231 1.8225 2.7933 1.8225 2.8226 0 0.02931-1.0053 0.03899-2.234 0.02149l-2.234-0.0318-1.3669-2.312c-0.75178-1.2716-1.4064-2.3124-1.4547-2.3128s-0.0878 1.0532-0.0878 2.3413v2.342h-3.7473z"/>
 </g>
</svg>
